<?xml version="1.0" encoding="UTF-8"?>
<svg version="1.1" xmlns="http://www.w3.org/2000/svg" width="768" height="768">
<path d="M0 0 C0.80848389 0.14920898 1.61696777 0.29841797 2.44995117 0.45214844 C8.18984679 1.61043131 13.18103874 3.57286779 18.4375 6.125 C19.09097412 6.43083008 19.74444824 6.73666016 20.41772461 7.05175781 C34.24129933 13.55905205 46.70802626 21.28599089 58.4375 31.125 C59.07945312 31.63289063 59.72140625 32.14078125 60.3828125 32.6640625 C61.77354217 33.77017772 63.11322906 34.940126 64.4375 36.125 C64.4375 36.785 64.4375 37.445 64.4375 38.125 C65.31728516 38.49818359 65.31728516 38.49818359 66.21484375 38.87890625 C68.74806333 40.29911196 70.14735353 41.83683746 72 44.0625 C74.42153716 46.95627268 74.42153716 46.95627268 77.03515625 49.671875 C78.8715592 51.57477722 79.97136551 53.77828065 81.1796875 56.11328125 C82.48278691 58.3227381 82.48278691 58.3227381 84.7578125 60.73046875 C88.16957195 64.75473995 90.23409492 69.3650636 92.4375 74.125 C92.87465332 75.0619873 93.31180664 75.99897461 93.76220703 76.96435547 C101.50535038 93.77729495 106.90116422 111.4931614 107.4375 130.125 C107.45796387 130.76163574 107.47842773 131.39827148 107.49951172 132.05419922 C107.94745834 147.96185743 106.82325474 163.79591016 103.0234375 179.27734375 C102.4659588 181.98669023 102.32585511 184.36940106 102.4375 187.125 C101.7775 187.125 101.1175 187.125 100.4375 187.125 C100.20417969 187.93582031 99.97085937 188.74664062 99.73046875 189.58203125 C98.14365346 193.93019279 96.02560238 197.79209982 93.75 201.8125 C93.30011719 202.61123535 92.85023438 203.4099707 92.38671875 204.23291016 C85.03672602 217.19777233 77.09912483 228.63505995 66.4375 239.125 C65.79425781 239.79144531 65.15101563 240.45789063 64.48828125 241.14453125 C63.91464844 241.73621094 63.34101563 242.32789063 62.75 242.9375 C62.16863281 243.54207031 61.58726562 244.14664063 60.98828125 244.76953125 C59.4375 246.125 59.4375 246.125 57.4375 246.125 C57.1075 247.115 56.7775 248.105 56.4375 249.125 C54.1796875 250.9921875 54.1796875 250.9921875 51.3125 253 C49.91644531 253.98613281 49.91644531 253.98613281 48.4921875 254.9921875 C47.48414063 255.69601562 46.47609375 256.39984375 45.4375 257.125 C44.88731201 257.53210205 44.33712402 257.9392041 43.77026367 258.35864258 C39.69177907 261.36284504 35.54312025 263.82767439 31 266.0625 C30.30898193 266.40313477 29.61796387 266.74376953 28.90600586 267.09472656 C3.34742604 279.44712365 -22.34661402 283.18970075 -50.5625 281.125 C-51.65159668 281.04789795 -51.65159668 281.04789795 -52.76269531 280.96923828 C-68.46657386 279.72737017 -95.97328869 274.71421131 -107.5625 263.125 C-107.6875 260.5 -107.6875 260.5 -107.5625 258.125 C-106.74072266 258.03025391 -106.74072266 258.03025391 -105.90234375 257.93359375 C-100.77514325 257.14158717 -96.5797458 255.74349114 -92.00146484 253.37646484 C-86.10367389 250.33028775 -81.64289311 248.1086173 -75.00390625 250.17578125 C-74.19824219 250.48902344 -73.39257812 250.80226563 -72.5625 251.125 C-43.3489183 261.40916411 -12.0602985 258.92880514 15.82836914 245.63378906 C24.24358145 241.49422274 32.42617761 236.88801098 39.5 230.6875 C42.4375 228.125 42.4375 228.125 44.4375 228.125 C44.4375 227.465 44.4375 226.805 44.4375 226.125 C45.0975 226.125 45.7575 226.125 46.4375 226.125 C46.4375 225.465 46.4375 224.805 46.4375 224.125 C47.60379452 223.05639005 48.82255932 222.0447002 50.0625 221.0625 C54.0037868 217.75014195 56.58084372 214.24828802 59.2109375 209.84765625 C59.61570312 209.27917969 60.02046875 208.71070313 60.4375 208.125 C61.0975 208.125 61.7575 208.125 62.4375 208.125 C62.70046875 207.41085937 62.9634375 206.69671875 63.234375 205.9609375 C64.48481843 203.01346371 65.99762107 200.46750802 67.6875 197.75 C74.392889 186.32289958 78.09903187 175.18892113 80.08911133 162.16113281 C80.47822641 159.88697741 80.9913062 157.65353882 81.49609375 155.40234375 C82.6683677 149.59566541 82.78140799 143.90925353 82.75 138 C82.74508545 136.90123535 82.7401709 135.8024707 82.73510742 134.67041016 C82.39642515 111.00433514 74.5649053 87.82565828 59.90625 69.1640625 C58.4375 67.125 58.4375 67.125 58.4375 65.125 C57.7775 65.125 57.1175 65.125 56.4375 65.125 C54.14727524 62.50956332 52.053638 59.76509497 49.921875 57.01953125 C32.32387516 36.51620125 2.22349941 23.35525809 -24.38671875 21.28515625 C-28.23811984 21.09092815 -32.08161941 20.98055301 -35.9375 20.9375 C-36.95469116 20.91792236 -36.95469116 20.91792236 -37.99243164 20.89794922 C-41.96700248 20.89104807 -44.98492663 21.37765239 -48.5625 23.125 C-48.5625 22.465 -48.5625 21.805 -48.5625 21.125 C-72.23717802 24.59684524 -94.56178809 33.1141627 -112.5625 49.125 C-113.41585937 49.79402344 -114.26921875 50.46304688 -115.1484375 51.15234375 C-117.34185004 52.94469542 -119.11197493 54.71998992 -120.9375 56.875 C-121.52917969 57.56851563 -122.12085938 58.26203125 -122.73046875 58.9765625 C-123.63732422 60.04003906 -123.63732422 60.04003906 -124.5625 61.125 C-125.79114597 62.5004653 -127.02030121 63.87547587 -128.25 65.25 C-130.99333341 68.40087961 -133.36702494 71.55735302 -135.5625 75.125 C-136.1090625 76.011875 -136.655625 76.89875 -137.21875 77.8125 C-140.98921603 84.07530798 -144.17279055 90.21675695 -146.5625 97.125 C-147.05169922 98.49785156 -147.05169922 98.49785156 -147.55078125 99.8984375 C-150.93891234 110.07591235 -152.70240549 120.58197237 -154.5625 131.125 C-153.9025 131.125 -153.2425 131.125 -152.5625 131.125 C-152.5625 132.115 -152.5625 133.105 -152.5625 134.125 C-153.2225 134.125 -153.8825 134.125 -154.5625 134.125 C-153.75391246 157.71345035 -150.44449642 178.8952629 -137.5625 199.125 C-133.763873 205.52088101 -133.763873 205.52088101 -132.5625 209.125 C-131.9025 209.125 -131.2425 209.125 -130.5625 209.125 C-129.2425 211.765 -127.9225 214.405 -126.5625 217.125 C-137.39478008 225.06610212 -137.39478008 225.06610212 -141.25 227.5 C-142.013125 228.03625 -142.77625 228.5725 -143.5625 229.125 C-143.5625 229.785 -143.5625 230.445 -143.5625 231.125 C-145.4375 230.875 -145.4375 230.875 -147.5625 230.125 C-148.6875 228.375 -148.6875 228.375 -149.5625 226.125 C-149.93375 225.2175 -150.305 224.31 -150.6875 223.375 C-151.120625 222.26125 -151.120625 222.26125 -151.5625 221.125 C-152.2225 221.125 -152.8825 221.125 -153.5625 221.125 C-155.26802431 218.55011108 -156.84073422 215.98750054 -158.375 213.3125 C-159.05103271 212.14533447 -159.05103271 212.14533447 -159.74072266 210.95458984 C-167.05978584 198.16808316 -172.23628608 184.9915033 -175.25 170.5625 C-175.46205078 169.59892578 -175.67410156 168.63535156 -175.89257812 167.64257812 C-179.66608368 149.98923825 -180.17096071 130.84519235 -176.5625 113.125 C-176.31185791 111.88508301 -176.31185791 111.88508301 -176.05615234 110.62011719 C-171.53218537 89.2319985 -162.77439828 70.24748936 -149.72705078 52.72998047 C-148.61320043 51.19487519 -147.58330283 49.59989564 -146.55859375 48.00390625 C-144.47405223 44.99743443 -142.20201757 42.65046434 -139.5625 40.125 C-138.8303125 39.34640625 -138.098125 38.5678125 -137.34375 37.765625 C-131.05476285 31.17511107 -124.21459705 25.99160566 -116.5625 21.125 C-115.97839355 20.74988281 -115.39428711 20.37476563 -114.79248047 19.98828125 C-79.18674662 -2.69718767 -41.16932919 -7.85348659 0 0 Z " fill="#223F74" transform="translate(419.5625,215.875)"/>
<path d="M0 0 C3.74055919 1.24685306 4.00892705 2.31343836 5.875 5.6875 C7.6165031 8.72650911 9.28432417 11.51702477 11.625 14.125 C13.55007332 16.45535191 14.62615117 18.09355037 15.875 20.75 C17.81726744 24.85034237 20.29864631 28.35268061 22.9453125 32.02734375 C25.43331226 35.62690233 27.71220123 39.33381967 30 43.0625 C33.25358252 48.34558136 36.63110107 53.35559781 40.54296875 58.18359375 C42.54231007 60.6760702 44.27014166 63.31573706 46 66 C46.61875 66.928125 47.2375 67.85625 47.875 68.8125 C50.58333333 72.875 53.29166667 76.9375 56 81 C55.67 81.66 55.34 82.32 55 83 C54.34 83 53.68 83 53 83 C53 83.66 53 84.32 53 85 C51.80375 84.71125 50.6075 84.4225 49.375 84.125 C42.47770682 82.58493454 35.08310456 81 28 81 C27.98582031 81.58523438 27.97164062 82.17046875 27.95703125 82.7734375 C26.69818561 105.43265896 16.39321434 128.06169887 3 146 C2.6194043 146.52126465 2.23880859 147.0425293 1.84667969 147.57958984 C-3.19714527 154.48029556 -8.25544836 160.67404409 -15 166 C-15.84304688 166.71671875 -16.68609375 167.4334375 -17.5546875 168.171875 C-23.72936915 173.38449577 -30.10893272 177.7992809 -37 182 C-37.96164062 182.62519531 -38.92328125 183.25039063 -39.9140625 183.89453125 C-49.19231271 189.84905385 -58.94233383 194.51988426 -69 199 C-69.99435059 199.44520996 -69.99435059 199.44520996 -71.00878906 199.89941406 C-81.38600574 204.47966551 -92.00134745 207.35974628 -103 210 C-103.66483398 210.16661133 -104.32966797 210.33322266 -105.01464844 210.50488281 C-113.13077967 212.53707119 -120.63528112 213.41363994 -129 213 C-128.83959961 211.17529297 -128.83959961 211.17529297 -128 209 C-125.65844727 207.53955078 -125.65844727 207.53955078 -122.56640625 206.1953125 C-121.44169922 205.69386719 -120.31699219 205.19242188 -119.15820312 204.67578125 C-117.97162109 204.16402344 -116.78503906 203.65226563 -115.5625 203.125 C-104.68642452 198.36557581 -94.64599167 193.11828135 -85 186.1875 C-84.41114014 185.76734619 -83.82228027 185.34719238 -83.21557617 184.91430664 C-78.50503522 181.4947981 -74.1970886 177.73973683 -69.98828125 173.71484375 C-68 172 -68 172 -65 171 C-63.79117904 168.99983534 -63.79117904 168.99983534 -63 167 C-62.34 167 -61.68 167 -61 167 C-60.34 165.68 -59.68 164.36 -59 163 C-58.34 163 -57.68 163 -57 163 C-56.34 161.35 -55.68 159.7 -55 158 C-54.34 158 -53.68 158 -53 158 C-52.34 156.35 -51.68 154.7 -51 153 C-50.34 153 -49.68 153 -49 153 C-48.73445313 152.28199219 -48.46890625 151.56398438 -48.1953125 150.82421875 C-46.97727598 147.94630893 -45.52165306 145.46629203 -43.875 142.8125 C-35.6886256 128.83242847 -30.56915355 115.00515809 -28 99 C-27.8040625 97.78570312 -27.608125 96.57140625 -27.40625 95.3203125 C-27.02334862 92.19083006 -26.89861657 89.21205816 -26.9375 86.0625 C-26.94652344 85.10472656 -26.95554687 84.14695312 -26.96484375 83.16015625 C-26.97644531 82.44730469 -26.98804688 81.73445313 -27 81 C-28.93552734 81.2165625 -28.93552734 81.2165625 -30.91015625 81.4375 C-32.62758266 81.62519688 -34.3450318 81.81268586 -36.0625 82 C-36.91005859 82.09539062 -37.75761719 82.19078125 -38.63085938 82.2890625 C-43.45472589 82.81056158 -48.14836264 83.10532727 -53 83 C-52.4438959 79.05861217 -51.34081155 76.63986025 -49 73.4375 C-48.37480469 72.57382812 -47.74960937 71.71015625 -47.10546875 70.8203125 C-44.85561091 67.80658827 -42.58463092 64.80945946 -40.3125 61.8125 C-36.88232481 57.28258433 -36.88232481 57.28258433 -33.9375 52.4375 C-32.23574383 49.41825519 -30.42942074 46.78143245 -28.375 44 C-23.87565557 37.89610995 -19.69168164 31.60634751 -15.515625 25.28076172 C-13.77329209 22.65884258 -12.01238094 20.04988993 -10.25 17.44140625 C-9.28827881 16.01320557 -9.28827881 16.01320557 -8.30712891 14.55615234 C-7.03153828 12.66226936 -5.7526296 10.77061646 -4.47021484 8.88134766 C-3.88965332 8.01687012 -3.3090918 7.15239258 -2.7109375 6.26171875 C-1.92662354 5.10095825 -1.92662354 5.10095825 -1.12646484 3.91674805 C0.16889152 2.08316274 0.16889152 2.08316274 0 0 Z " fill="#214075" transform="translate(383,261)"/>
<path d="M0 0 C4.70403481 -0.02636745 9.40807808 -0.04461131 14.11215723 -0.06098223 C16.32425328 -0.0704684 18.53633741 -0.08345096 20.74839103 -0.1001153 C23.77128715 -0.12246066 26.79398534 -0.13256583 29.81694996 -0.13966513 C30.70926894 -0.14929124 31.60158792 -0.15891735 32.52094686 -0.16883516 C33.33545552 -0.1682904 34.14996419 -0.16774563 34.98915493 -0.16718435 C36.04696319 -0.1728565 36.04696319 -0.1728565 37.12614131 -0.17864323 C38.99160206 0.0633378 38.99160206 0.0633378 41.99160206 2.0633378 C42.37978566 3.97105265 42.37978566 3.97105265 42.39003956 6.2742753 C42.39390675 7.10700968 42.39777394 7.93974405 42.40175831 8.7977128 C42.38435597 10.10482218 42.38435597 10.10482218 42.36660206 11.4383378 C42.37820363 12.30200968 42.38980519 13.16568155 42.40175831 14.0555253 C42.39789113 14.8908378 42.39402394 15.7261503 42.39003956 16.5867753 C42.38665577 17.34909464 42.38327199 18.11141397 42.37978566 18.8968339 C41.87588046 21.70919534 40.9469315 22.98724015 38.99160206 25.0633378 C36.73617131 25.56243312 36.73617131 25.56243312 34.03653824 25.56111574 C33.0076802 25.57031333 31.97882215 25.57951092 30.91878659 25.58898723 C29.78495055 25.5787001 28.65111452 25.56841298 27.48291981 25.55781412 C25.68034501 25.56505737 25.68034501 25.56505737 23.84135455 25.57244694 C20.49959906 25.58179065 17.15875668 25.57311737 13.81708431 25.55691838 C10.21582212 25.54378524 6.61461485 25.5536567 3.01334584 25.56068277 C-4.0435962 25.57077701 -11.10035111 25.55947109 -18.1572699 25.54098217 C-26.36903356 25.52023888 -34.5807565 25.52035388 -42.79254144 25.52132733 C-57.4401354 25.5223291 -72.0876421 25.50399075 -86.73520458 25.4749589 C-100.96080669 25.44677783 -115.18633198 25.43261753 -129.41196239 25.43394327 C-130.28822011 25.43402318 -131.16447784 25.4341031 -132.06728882 25.43418543 C-132.94200569 25.43426614 -133.81672256 25.43434685 -134.71794599 25.43443 C-150.89630693 25.43580845 -167.07463513 25.42403731 -183.25298547 25.40612357 C-188.98233546 25.40008203 -194.71167946 25.39796341 -200.44103229 25.39705896 C-207.41866553 25.39569696 -214.39624359 25.38679922 -221.37385339 25.36839335 C-224.9365851 25.35913747 -228.49924607 25.35307364 -232.06199062 25.35558176 C-235.91694939 25.35816408 -239.77176498 25.34531739 -243.62669933 25.33076334 C-245.33079946 25.33540915 -245.33079946 25.33540915 -247.06932586 25.34014881 C-248.09557616 25.33369991 -249.12182646 25.32725102 -250.17917526 25.32060671 C-251.06989182 25.31919786 -251.96060837 25.31778901 -252.87831634 25.31633747 C-255.00839794 25.0633378 -255.00839794 25.0633378 -257.00839794 23.0633378 C-257.37137153 20.26200131 -257.61269989 17.56375007 -257.75839794 14.7508378 C-257.81382762 13.99093546 -257.86925731 13.23103312 -257.92636669 12.44810343 C-257.96890575 11.70624796 -258.01144481 10.96439249 -258.05527294 10.20005655 C-258.09491161 9.5267631 -258.13455028 8.85346964 -258.17539012 8.15977335 C-257.9661595 5.53307252 -257.01906331 3.48282882 -256.00839794 1.0633378 C-225.64793975 0.93472288 -195.28747711 0.8072102 -164.92700819 0.68115553 C-161.31123443 0.66614214 -157.6954607 0.65111972 -154.079687 0.63609171 C-153.3601019 0.63310109 -152.6405168 0.63011048 -151.8991261 0.62702924 C-140.37398585 0.57910911 -128.84884877 0.53046401 -117.32371278 0.48153239 C-105.42444396 0.43102919 -93.52517189 0.38134803 -81.62589669 0.33237076 C-74.97322932 0.30496644 -68.32056395 0.27720364 -61.66790187 0.24853373 C-48.27746023 0.19105 -34.88703602 0.13902006 -21.49652743 0.09976768 C-14.33092777 0.07770267 -7.16550426 0.04286971 0 0 Z " fill="#19386F" transform="translate(492.008397936821,510.93666219711304)"/>
<path d="M0 0 C4.70403481 -0.02636745 9.40807808 -0.04461131 14.11215723 -0.06098223 C16.32425328 -0.0704684 18.53633741 -0.08345096 20.74839103 -0.1001153 C23.77128715 -0.12246066 26.79398534 -0.13256583 29.81694996 -0.13966513 C30.70926894 -0.14929124 31.60158792 -0.15891735 32.52094686 -0.16883516 C33.33545552 -0.1682904 34.14996419 -0.16774563 34.98915493 -0.16718435 C36.04696319 -0.1728565 36.04696319 -0.1728565 37.12614131 -0.17864323 C38.99160206 0.0633378 38.99160206 0.0633378 41.99160206 2.0633378 C42.37978566 3.97105265 42.37978566 3.97105265 42.39003956 6.2742753 C42.39390675 7.10700968 42.39777394 7.93974405 42.40175831 8.7977128 C42.38435597 10.10482218 42.38435597 10.10482218 42.36660206 11.4383378 C42.37820363 12.30200968 42.38980519 13.16568155 42.40175831 14.0555253 C42.39789113 14.8908378 42.39402394 15.7261503 42.39003956 16.5867753 C42.38665577 17.34909464 42.38327199 18.11141397 42.37978566 18.8968339 C41.87588046 21.70919534 40.9469315 22.98724015 38.99160206 25.0633378 C36.73617131 25.56243312 36.73617131 25.56243312 34.03653824 25.56111574 C33.0076802 25.57031333 31.97882215 25.57951092 30.91878659 25.58898723 C29.78495055 25.5787001 28.65111452 25.56841298 27.48291981 25.55781412 C25.68034501 25.56505737 25.68034501 25.56505737 23.84135455 25.57244694 C20.49959906 25.58179065 17.15875668 25.57311737 13.81708431 25.55691838 C10.21582212 25.54378524 6.61461485 25.5536567 3.01334584 25.56068277 C-4.0435962 25.57077701 -11.10035111 25.55947109 -18.1572699 25.54098217 C-26.36903356 25.52023888 -34.5807565 25.52035388 -42.79254144 25.52132733 C-57.4401354 25.5223291 -72.0876421 25.50399075 -86.73520458 25.4749589 C-100.96080669 25.44677783 -115.18633198 25.43261753 -129.41196239 25.43394327 C-130.28822011 25.43402318 -131.16447784 25.4341031 -132.06728882 25.43418543 C-132.94200569 25.43426614 -133.81672256 25.43434685 -134.71794599 25.43443 C-150.89630693 25.43580845 -167.07463513 25.42403731 -183.25298547 25.40612357 C-188.98233546 25.40008203 -194.71167946 25.39796341 -200.44103229 25.39705896 C-207.41866553 25.39569696 -214.39624359 25.38679922 -221.37385339 25.36839335 C-224.9365851 25.35913747 -228.49924607 25.35307364 -232.06199062 25.35558176 C-235.91694939 25.35816408 -239.77176498 25.34531739 -243.62669933 25.33076334 C-245.33079946 25.33540915 -245.33079946 25.33540915 -247.06932586 25.34014881 C-248.09557616 25.33369991 -249.12182646 25.32725102 -250.17917526 25.32060671 C-251.06989182 25.31919786 -251.96060837 25.31778901 -252.87831634 25.31633747 C-255.00839794 25.0633378 -255.00839794 25.0633378 -257.00839794 23.0633378 C-257.37137153 20.26200131 -257.61269989 17.56375007 -257.75839794 14.7508378 C-257.81382762 13.99093546 -257.86925731 13.23103312 -257.92636669 12.44810343 C-257.96890575 11.70624796 -258.01144481 10.96439249 -258.05527294 10.20005655 C-258.09491161 9.5267631 -258.13455028 8.85346964 -258.17539012 8.15977335 C-257.9661595 5.53307252 -257.01906331 3.48282882 -256.00839794 1.0633378 C-225.64793975 0.93472288 -195.28747711 0.8072102 -164.92700819 0.68115553 C-161.31123443 0.66614214 -157.6954607 0.65111972 -154.079687 0.63609171 C-153.3601019 0.63310109 -152.6405168 0.63011048 -151.8991261 0.62702924 C-140.37398585 0.57910911 -128.84884877 0.53046401 -117.32371278 0.48153239 C-105.42444396 0.43102919 -93.52517189 0.38134803 -81.62589669 0.33237076 C-74.97322932 0.30496644 -68.32056395 0.27720364 -61.66790187 0.24853373 C-48.27746023 0.19105 -34.88703602 0.13902006 -21.49652743 0.09976768 C-14.33092777 0.07770267 -7.16550426 0.04286971 0 0 Z M-255.00839794 2.0633378 C-255.00839794 8.9933378 -255.00839794 15.9233378 -255.00839794 23.0633378 C-157.65839794 23.0633378 -60.30839794 23.0633378 39.99160206 23.0633378 C39.99160206 16.1333378 39.99160206 9.2033378 39.99160206 2.0633378 C-57.35839794 2.0633378 -154.70839794 2.0633378 -255.00839794 2.0633378 Z " fill="#DCE1E7" transform="translate(492.008397936821,510.93666219711304)"/>
<path d="M0 0 C97.35 0 194.7 0 295 0 C295 6.93 295 13.86 295 21 C292.69 21 290.38 21 288 21 C288 20.67 288 20.34 288 20 C289.65 20 291.3 20 293 20 C293 14.06 293 8.12 293 2 C196.64 2 100.28 2 1 2 C1 7.94 1 13.88 1 20 C12.88 20 24.76 20 37 20 C37 20.33 37 20.66 37 21 C24.79 21 12.58 21 0 21 C0 14.07 0 7.14 0 0 Z " fill="#2C4979" transform="translate(237,513)"/>
<path d="M0 0 C3.67564081 2.68222437 5.82338093 5.02530431 8 9 C9.3227887 11.00698975 10.65783025 13.00591923 12 15 C13.08394785 16.62459015 14.16725465 18.24960816 15.25 19.875 C16.03117187 21.04675781 16.03117187 21.04675781 16.828125 22.2421875 C17.21484375 22.82226562 17.6015625 23.40234375 18 24 C17.67 24.66 17.34 25.32 17 26 C16.34 26 15.68 26 15 26 C15 26.66 15 27.32 15 28 C13.80375 27.71125 12.6075 27.4225 11.375 27.125 C4.47770682 25.58493454 -2.91689544 24 -10 24 C-10.01417969 24.58523438 -10.02835937 25.17046875 -10.04296875 25.7734375 C-11.30181439 48.43265896 -21.60678566 71.06169887 -35 89 C-35.3805957 89.52126465 -35.76119141 90.0425293 -36.15332031 90.57958984 C-41.18783457 97.46755713 -46.24338221 103.70154118 -53 109 C-54.16885991 109.97654749 -55.33572881 110.95548622 -56.5 111.9375 C-57.325 112.618125 -58.15 113.29875 -59 114 C-59.66 113.67 -60.32 113.34 -61 113 C-57.66784141 109.57668814 -54.35686945 106.23899145 -50.625 103.25 C-45.72165532 99.11623857 -41.90188585 94.05851629 -38 89 C-37.401875 88.22914063 -36.80375 87.45828125 -36.1875 86.6640625 C-24.22046479 70.43100085 -16.6370306 51.73754413 -13 32 C-12.34 28.7 -11.68 25.4 -11 22 C-2.75 22.33 5.5 22.66 14 23 C12.989375 21.50726563 11.97875 20.01453125 10.9375 18.4765625 C9.62475873 16.52620404 8.31227183 14.57567435 7 12.625 C6.33226562 11.64015625 5.66453125 10.6553125 4.9765625 9.640625 C4.34492188 8.69960938 3.71328125 7.75859375 3.0625 6.7890625 C2.18271484 5.48509521 2.18271484 5.48509521 1.28515625 4.15478516 C0 2 0 2 0 0 Z " fill="#E4E7EB" transform="translate(421,318)"/>
<path d="M0 0 C8.80818218 16.73775371 2.90084419 47.57230312 -1.4140625 65.15234375 C-1.9715412 67.86169023 -2.11164489 70.24440106 -2 73 C-2.66 73 -3.32 73 -4 73 C-4.23332031 73.81082031 -4.46664062 74.62164062 -4.70703125 75.45703125 C-6.29386597 79.80524601 -8.4121146 83.66693253 -10.6875 87.6875 C-11.35906128 88.88125244 -11.35906128 88.88125244 -12.04418945 90.09912109 C-17.32076829 99.4151816 -22.62491105 108.17657738 -30 116 C-30 111.94249018 -27.92702772 109.96345953 -25.5625 106.875 C-16.07344757 93.98270807 -9.83704308 80.19767728 -5 65 C-4.52433594 63.58074219 -4.52433594 63.58074219 -4.0390625 62.1328125 C0.37193895 48.46307533 0.24862465 34.95283901 0.125 20.75 C0.11494943 18.73307736 0.10582726 16.71614988 0.09765625 14.69921875 C0.07580895 9.79935762 0.04139364 4.89973339 0 0 Z " fill="#DCE0E5" transform="translate(524,330)"/>
<path d="M0 0 C0 3 0 3 -1.51171875 4.91015625 C-24.68232767 27.83117154 -54.76742238 42.42055797 -87.67773438 42.31567383 C-89.73361918 42.31252509 -91.78804286 42.33602485 -93.84375 42.36132812 C-107.28750315 42.42551581 -120.52324155 40.25001591 -133 35 C-133.66 34.34 -134.32 33.68 -135 33 C-130.11146039 33.37604151 -125.99342484 34.27214305 -121.375 35.9375 C-94.60628936 45.08209059 -63.71033588 40.47497291 -38.60913086 28.50878906 C-30.19391855 24.36922274 -22.01132239 19.76301098 -14.9375 13.5625 C-12 11 -12 11 -10 11 C-10 10.34 -10 9.68 -10 9 C-9.34 9 -8.68 9 -8 9 C-8 8.34 -8 7.68 -8 7 C-6.25 5.2734375 -6.25 5.2734375 -4 3.375 C-2.88625 2.42753906 -2.88625 2.42753906 -1.75 1.4609375 C-1.1725 0.97882813 -0.595 0.49671875 0 0 Z " fill="#E7EAEF" transform="translate(474,433)"/>
<path d="M0 0 C15.10652345 5.90657907 26.91998413 29.72489896 33.09619141 43.75488281 C38.96661298 58.33737789 41.23014996 72.26428052 41.25 87.9375 C41.25167175 88.63053223 41.25334351 89.32356445 41.25506592 90.03759766 C41.25694432 103.00611664 39.61883143 114.53863265 36 127 C35.67 127 35.34 127 35 127 C34.6713013 120.75472478 36.07195368 114.91025212 37.50561523 108.86962891 C39.00369496 102.16483323 39.34895166 95.73319491 39.3125 88.875 C39.30758545 87.77623535 39.3026709 86.6774707 39.29760742 85.54541016 C38.95892515 61.87933514 31.1274053 38.70065828 16.46875 20.0390625 C15 18 15 18 15 16 C14.34 16 13.68 16 13 16 C11.48015117 14.32464541 10.03293547 12.58294378 8.625 10.8125 C7.85414063 9.84957031 7.08328125 8.88664062 6.2890625 7.89453125 C5.53367187 6.93933594 4.77828125 5.98414063 4 5 C2.66722146 3.33288965 1.33407609 1.66607219 0 0 Z " fill="#D6DAE2" transform="translate(463,265)"/>
<path d="M0 0 C1.21272583 0.22381348 1.21272583 0.22381348 2.44995117 0.45214844 C8.18980959 1.6104238 13.18312208 3.5677946 18.4375 6.125 C19.11756104 6.44678223 19.79762207 6.76856445 20.49829102 7.10009766 C28.50260439 10.91725405 36.26387092 14.86433868 43.4375 20.125 C40.27026081 20.125 39.46412624 19.76238974 36.83203125 18.21875 C27.89186397 13.15030088 19.01231436 8.944985 9.25 5.6875 C8.31454346 5.37039062 7.37908691 5.05328125 6.4152832 4.7265625 C-6.76157917 0.49361611 -19.62518401 -1.38863732 -33.41699219 -1.26611328 C-35.56249488 -1.25000004 -37.70611523 -1.26609647 -39.8515625 -1.28515625 C-48.56416234 -1.2963288 -56.65373525 -0.35770008 -65.171875 1.48193359 C-68.08621053 2.03466687 -70.61251885 2.25800249 -73.5625 2.125 C-70.12898973 -0.16400685 -67.03946811 -0.73850097 -63.0625 -1.4375 C-61.98174194 -1.63146362 -61.98174194 -1.63146362 -60.87915039 -1.8293457 C-40.36217864 -5.40796716 -20.33058323 -3.87827458 0 0 Z " fill="#E8EBEF" transform="translate(419.5625,215.875)"/>
<path d="M0 0 C1.24703266 3.74109799 0.45460854 4.44429023 -1 8 C-1.2165625 9.60875 -1.2165625 9.60875 -1.4375 11.25 C-1.88194597 14.21297311 -2.42790209 16.36879772 -3.4375 19.125 C-7.33891557 30.43972939 -7.40214419 42.35596786 -7.375 54.1875 C-7.37567978 55.34329056 -7.37567978 55.34329056 -7.37637329 56.52243042 C-7.35631055 68.14026445 -6.5508025 78.86569789 -3 90 C-2.6803125 91.04929687 -2.360625 92.09859375 -2.03125 93.1796875 C-1.52142949 94.84604527 -0.98988674 96.50626508 -0.41796875 98.15234375 C0 100 0 100 -1 103 C-3.84228839 97.05778889 -5.27306312 91.11754549 -6.625 84.6875 C-6.8415625 83.70587891 -7.058125 82.72425781 -7.28125 81.71289062 C-12.70206794 56.43247114 -12.52573917 23.31440561 0 0 Z " fill="#D7DCE3" transform="translate(251,302)"/>
<path d="M0 0 C3.74055919 1.24685306 4.00892705 2.31343836 5.875 5.6875 C7.6165031 8.72650911 9.28432417 11.51702477 11.625 14.125 C13.55007332 16.45535191 14.62615117 18.09355037 15.875 20.75 C17.81360701 24.84261479 20.28956214 28.33906687 22.9296875 32.0078125 C25.96313416 36.39200144 28.74459069 40.92563673 31.53564453 45.46679688 C33.56544649 48.75767071 35.59943988 51.96032971 38 55 C37.505 55.99 37.505 55.99 37 57 C28.46706747 45.75369396 20.94027142 33.81412758 13.24707031 21.98828125 C11.44214097 19.21612157 9.63157862 16.44770947 7.8203125 13.6796875 C7.26513947 12.82253143 6.70996643 11.96537537 6.13796997 11.08224487 C5.62338226 10.29697418 5.10879456 9.51170349 4.57861328 8.70263672 C4.12753204 8.00967499 3.67645081 7.31671326 3.21170044 6.60275269 C2.07477038 4.8524774 2.07477038 4.8524774 0 4 C-0.26683594 4.73089844 -0.53367187 5.46179688 -0.80859375 6.21484375 C-2.32935248 9.76992891 -4.43251424 12.67374259 -6.66015625 15.81640625 C-7.9533192 17.92392254 -8.55651688 19.58548082 -9 22 C-9.99 22 -10.98 22 -12 22 C-10.39158917 17.2209862 -7.71886038 13.41897066 -4.875 9.3125 C-1.43959033 5.01144163 -1.43959033 5.01144163 0 0 Z " fill="#EBEEF1" transform="translate(383,261)"/>
<path d="M0 0 C0.66 0.33 1.32 0.66 2 1 C-0.99570891 2.61227389 -3.99730217 4.21328538 -7 5.8125 C-8.25876953 6.49022461 -8.25876953 6.49022461 -9.54296875 7.18164062 C-14.60070337 9.86733692 -19.59109298 12.11564698 -25 14 C-15.70663539 13.04940012 -6.72684346 11.66535631 2.32592773 9.32128906 C5.96787483 8.39426391 9.23670653 7.78077902 13 8 C10.14843494 9.90104337 8.51223021 10.50545274 5.25390625 11.25390625 C4.33416016 11.46853516 3.41441406 11.68316406 2.46679688 11.90429688 C1.50837891 12.12150391 0.54996094 12.33871094 -0.4375 12.5625 C-2.33203743 13.00127538 -4.22656891 13.44007649 -6.12109375 13.87890625 C-6.9608374 14.0704126 -7.80058105 14.26191895 -8.66577148 14.45922852 C-10.15491238 14.80421827 -11.63941363 15.17038245 -13.11645508 15.56396484 C-15.84024241 16.19451367 -18.4605675 16.09281992 -21.25 16.0625 C-22.32765625 16.05347656 -23.4053125 16.04445313 -24.515625 16.03515625 C-25.33546875 16.02355469 -26.1553125 16.01195312 -27 16 C-26.85717773 14.19067383 -26.85717773 14.19067383 -26 12 C-23.53149414 10.4284668 -23.53149414 10.4284668 -20.28515625 8.94921875 C-19.12435547 8.41619141 -17.96355469 7.88316406 -16.76757812 7.33398438 C-16.15986572 7.06416748 -15.55215332 6.79435059 -14.92602539 6.51635742 C-13.06544304 5.688809 -11.21711587 4.83769737 -9.36914062 3.98242188 C-2.70500584 0.96267805 -2.70500584 0.96267805 0 0 Z " fill="#E7EAEE" transform="translate(281,458)"/>
<path d="M0 0 C0.33 0 0.66 0 1 0 C1 6.93 1 13.86 1 21 C9.25 21 17.5 21 26 21 C23.43011319 23.56988681 22.41089947 23.25706775 18.84375 23.265625 C17.31041016 23.26949219 17.31041016 23.26949219 15.74609375 23.2734375 C14.67488281 23.26570312 13.60367188 23.25796875 12.5 23.25 C10.89318359 23.26160156 10.89318359 23.26160156 9.25390625 23.2734375 C8.23167969 23.27085937 7.20945313 23.26828125 6.15625 23.265625 C5.21587891 23.26336914 4.27550781 23.26111328 3.30664062 23.25878906 C1 23 1 23 -1 21 C-1.36222775 18.17812895 -1.60410267 15.45823202 -1.75 12.625 C-1.80542969 11.85671875 -1.86085937 11.0884375 -1.91796875 10.296875 C-2.31567396 3.33100793 -2.31567396 3.33100793 0 0 Z " fill="#CED5DF" transform="translate(236,513)"/>
<path d="M0 0 C7.13661236 0.36980199 13.10387556 1.75409904 19.6875 4.5 C20.98179932 5.03077148 20.98179932 5.03077148 22.30224609 5.57226562 C34.38778755 10.67927334 45.05437492 17.41166023 55 26 C54.01 26.495 54.01 26.495 53 27 C52.15179688 26.3709375 51.30359375 25.741875 50.4296875 25.09375 C36.33762859 14.75171858 22.89482918 7.78389349 6.15966797 2.74267578 C3.990336 1.9966767 2.02559404 1.07176418 0 0 Z " fill="#E3E6EA" transform="translate(408,238)"/>
<path d="M0 0 C0.33 0.99 0.66 1.98 1 3 C0.14453125 4.69140625 0.14453125 4.69140625 -1.1875 6.5625 C-8.23414528 17.26872902 -11.47044125 30.56300284 -14 43 C-14.33 43 -14.66 43 -15 43 C-15.27349073 36.92850582 -14.50050625 32.21690672 -12.5 26.5 C-12.23807861 25.73115479 -11.97615723 24.96230957 -11.70629883 24.17016602 C-4.89221818 4.89221818 -4.89221818 4.89221818 0 0 Z " fill="#E2E5E9" transform="translate(281,292)"/>
<path d="M0 0 C1.14782959 -0.00918457 2.29565918 -0.01836914 3.47827148 -0.02783203 C10.3042149 -0.00318786 16.62113849 0.5993646 23.25 2.25 C23.25 2.58 23.25 2.91 23.25 3.25 C22.280625 3.1778125 21.31125 3.105625 20.3125 3.03125 C13.06575293 2.51785896 5.82823632 2.130595 -1.4375 2.0625 C-2.72011719 2.04832031 -4.00273437 2.03414062 -5.32421875 2.01953125 C-8.60039348 2.23993525 -10.81634694 2.83085235 -13.75 4.25 C-13.75 3.59 -13.75 2.93 -13.75 2.25 C-19.03 2.91 -24.31 3.57 -29.75 4.25 C-23.56463314 -1.93536686 -8.16581188 0.03653607 0 0 Z " fill="#DEE2E7" transform="translate(384.75,234.75)"/>
<path d="M0 0 C0.66 0.33 1.32 0.66 2 1 C0.48016736 2.37610601 -1.04092514 3.75082062 -2.5625 5.125 C-3.48289062 5.95902344 -4.40328125 6.79304687 -5.3515625 7.65234375 C-7.34112555 9.41595347 -9.34307828 11.05793774 -11.4375 12.6875 C-15.7066675 16.26216178 -18.92777735 20.82006722 -22.26928711 25.23901367 C-25.81170933 29.90585467 -25.81170933 29.90585467 -28 31 C-25.66448611 23.99345832 -21.18320297 19.09886091 -16 14 C-15.18660156 13.16339844 -14.37320312 12.32679688 -13.53515625 11.46484375 C-9.27262126 7.10803469 -5.29132378 3.06339798 0 0 Z " fill="#E5E8EE" transform="translate(296,242)"/>
<path d="M0 0 C3.67564081 2.68222437 5.82338093 5.02530431 8 9 C9.3227887 11.00698975 10.65783025 13.00591923 12 15 C13.08394785 16.62459015 14.16725465 18.24960816 15.25 19.875 C15.77078125 20.65617187 16.2915625 21.43734375 16.828125 22.2421875 C17.21484375 22.82226562 17.6015625 23.40234375 18 24 C17.67 24.66 17.34 25.32 17 26 C16.34 26 15.68 26 15 26 C15 26.66 15 27.32 15 28 C13.02 27.34 11.04 26.68 9 26 C9 25.67 9 25.34 9 25 C10.98 24.67 12.96 24.34 15 24 C14.54560547 23.34402832 14.09121094 22.68805664 13.62304688 22.01220703 C11.57721775 19.05309881 9.5385337 16.08913819 7.5 13.125 C6.78457031 12.09246094 6.06914062 11.05992187 5.33203125 9.99609375 C4.65527344 9.00996094 3.97851562 8.02382813 3.28125 7.0078125 C2.65283203 6.09660645 2.02441406 5.18540039 1.37695312 4.24658203 C0 2 0 2 0 0 Z " fill="#F2F4F6" transform="translate(421,318)"/>
<path d="M0 0 C3.20104152 2.12036788 4.76699261 3.93348777 6.40234375 7.39453125 C6.81564941 8.26142578 7.22895508 9.12832031 7.65478516 10.02148438 C8.07808105 10.94251953 8.50137695 11.86355469 8.9375 12.8125 C9.59564697 14.22305664 9.59564697 14.22305664 10.26708984 15.66210938 C19.41173853 35.5338079 19.41173853 35.5338079 19 43 C17.56493703 40.24611455 16.40496577 37.50498897 15.37109375 34.578125 C11.59204606 24.1295315 7.41300072 14.48648647 1.6875 4.95703125 C0 2 0 2 0 0 Z " fill="#EFF0F2" transform="translate(503,277)"/>
<path d="M0 0 C4.81806115 0.37062009 8.88829801 1.23101252 13.4375 2.875 C21.10830847 5.57307641 28.99322683 6.74775586 37 8 C37 8.33 37 8.66 37 9 C25.26733187 9.71832662 12.77619657 6.53444728 2 2 C1.34 1.34 0.68 0.68 0 0 Z " fill="#D8DEE5" transform="translate(339,466)"/>
<path d="M0 0 C0.33 0 0.66 0 1 0 C1.41356062 16.13522676 0.55752484 30.4647849 -4 46 C-4.33 46 -4.66 46 -5 46 C-5.32946871 39.74009454 -3.98265296 33.7978209 -2.421875 27.765625 C-0.8323727 21.18054406 -0.85196047 14.80289765 -0.98583984 8.06835938 C-1.09260082 2.18520164 -1.09260082 2.18520164 0 0 Z " fill="#F5F7F9" transform="translate(503,346)"/>
<path d="M0 0 C3.49107379 1.16369126 3.85222763 1.88973538 5.6875 4.9375 C6.34298828 6.00291016 6.34298828 6.00291016 7.01171875 7.08984375 C8 9 8 9 8 11 C4.23145777 9.74381926 3.92041544 8.33985294 2 5 C1.34 4.67 0.68 4.34 0 4 C-0.26683594 4.73089844 -0.53367187 5.46179688 -0.80859375 6.21484375 C-2.32935248 9.76992891 -4.43251424 12.67374259 -6.66015625 15.81640625 C-7.9533192 17.92392254 -8.55651688 19.58548082 -9 22 C-9.99 22 -10.98 22 -12 22 C-10.39158917 17.2209862 -7.71886038 13.41897066 -4.875 9.3125 C-1.43959033 5.01144163 -1.43959033 5.01144163 0 0 Z " fill="#EBEEF2" transform="translate(383,261)"/>
<path d="M0 0 C0.66 0.33 1.32 0.66 2 1 C-6.18262854 10.84472496 -15.85255252 18.31207104 -26 26 C-26.66 25.67 -27.32 25.34 -28 25 C-27.05898438 24.27554687 -26.11796875 23.55109375 -25.1484375 22.8046875 C-23.89045555 21.8283433 -22.6326526 20.85176842 -21.375 19.875 C-20.75753906 19.400625 -20.14007813 18.92625 -19.50390625 18.4375 C-16.35924182 15.98797191 -13.43734813 13.50050785 -10.6640625 10.6328125 C-8 8 -8 8 -6 8 C-5.34 6.68 -4.68 5.36 -4 4 C-3.34 4 -2.68 4 -2 4 C-1.34 2.68 -0.68 1.36 0 0 Z " fill="#E1E6ED" transform="translate(324,424)"/>
<path d="M0 0 C0.66 0.33 1.32 0.66 2 1 C0.91332031 2.16015625 0.91332031 2.16015625 -0.1953125 3.34375 C-4.98362523 8.49064789 -9.6117904 13.58989129 -13.71875 19.30859375 C-15.59844431 21.79001947 -17.73577683 23.86896643 -20 26 C-16.34367131 15.87885827 -7.4937893 7.4937893 0 0 Z " fill="#E1E5E8" transform="translate(302,266)"/>
<path d="M0 0 C0.91007812 0.00902344 1.82015625 0.01804688 2.7578125 0.02734375 C3.80582031 0.04474609 3.80582031 0.04474609 4.875 0.0625 C1.37458438 2.39611041 -2.23518 3.55272118 -6.1875 4.875 C-12.18225838 6.91770074 -17.79850544 9.16925176 -23.33984375 12.27734375 C-24.22349609 12.66599609 -24.22349609 12.66599609 -25.125 13.0625 C-25.785 12.7325 -26.445 12.4025 -27.125 12.0625 C-24.54409233 10.74503667 -21.96049542 9.43340383 -19.375 8.125 C-18.64539063 7.75181641 -17.91578125 7.37863281 -17.1640625 6.99414062 C-16.45507812 6.63642578 -15.74609375 6.27871094 -15.015625 5.91015625 C-14.36625977 5.58023682 -13.71689453 5.25031738 -13.04785156 4.91040039 C-11.09206921 4.04797884 -9.20959306 3.51875821 -7.125 3.0625 C-7.125 2.4025 -7.125 1.7425 -7.125 1.0625 C-4.60024538 -0.19987731 -2.81299534 -0.03606404 0 0 Z " fill="#C6CDD7" transform="translate(350.125,238.9375)"/>
<path d="M0 0 C0.33 0 0.66 0 1 0 C1.14285714 8.57142857 1.14285714 8.57142857 0 12 C0.66 12 1.32 12 2 12 C2 12.99 2 13.98 2 15 C1.34 15 0.68 15 0 15 C0.54569547 25.3449929 1.14265366 35.67536114 2 46 C1.67 46 1.34 46 1 46 C-0.74730557 37.32485061 -1.28114176 29.02432504 -1.1875 20.1875 C-1.18685547 19.01251953 -1.18621094 17.83753906 -1.18554688 16.62695312 C-1.15688901 10.98772283 -1.01320558 5.55236658 0 0 Z " fill="#F3F4F5" transform="translate(265,335)"/>
<path d="M0 0 C-0.969375 0.474375 -1.93875 0.94875 -2.9375 1.4375 C-5.80477437 2.70193947 -5.80477437 2.70193947 -7 4 C-2.38 6.31 2.24 8.62 7 11 C2.84420628 12.38526457 1.26239712 10.99543276 -2.625 9.125 C-4.37683594 8.29355469 -4.37683594 8.29355469 -6.1640625 7.4453125 C-9 6 -9 6 -10 5 C-10.04063832 3.33382885 -10.042721 1.66611905 -10 0 C-6.33694766 -0.74926071 -3.57644848 -1.2380014 0 0 Z " fill="#E6EAEE" transform="translate(322,474)"/>
<path d="M0 0 C5.2240374 1.41818193 8.95443895 3.78408495 13.25 6.9375 C13.87390625 7.38029297 14.4978125 7.82308594 15.140625 8.27929688 C18.01335609 10.35645481 20.01566565 12.02349847 22 15 C17.98904888 13.59290322 14.95324484 11.67407059 11.5625 9.125 C8.52110381 6.86039283 5.49903325 4.61857264 2.3125 2.5625 C1.549375 2.046875 0.78625 1.53125 0 1 C0 0.67 0 0.34 0 0 Z " fill="#EEEFF2" transform="translate(441,250)"/>
<path d="M0 0 C0.99 0.66 1.98 1.32 3 2 C1.10507994 2.33848652 -0.79098466 2.67056911 -2.6875 3 C-3.74324219 3.185625 -4.79898437 3.37125 -5.88671875 3.5625 C-8.64904062 3.95068074 -11.21742043 4.08259976 -14 4 C-13 2 -13 2 -10.9375 0.875 C-7.04781581 -0.28362933 -4.06300644 -0.26212945 0 0 Z " fill="#43608B" transform="translate(269,469)"/>
<path d="M0 0 C0 3 0 3 -2 5.1875 C-2.99901185 6.12605292 -3.9991849 7.06337019 -5 8 C-6.44149118 9.4334977 -7.87882481 10.87118534 -9.3125 12.3125 C-10.54166667 13.54166667 -11.77083333 14.77083333 -13 16 C-13.66 15.67 -14.32 15.34 -15 15 C-10.05 10.05 -5.1 5.1 0 0 Z " fill="#E0E3E7" transform="translate(492,446)"/>
<path d="M0 0 C5.06563284 4.45161674 8.9929287 9.96717995 12 16 C11.67 16.99 11.34 17.98 11 19 C10.54109375 18.19175781 10.0821875 17.38351562 9.609375 16.55078125 C8.68898438 14.94783203 8.68898438 14.94783203 7.75 13.3125 C7.14671875 12.25675781 6.5434375 11.20101563 5.921875 10.11328125 C4.07134768 6.9699248 4.07134768 6.9699248 1.765625 4.23046875 C0 2 0 2 0 0 Z " fill="#EFF0F2" transform="translate(478,281)"/>
<path d="M0 0 C4.06498881 1.37184347 6.67396561 3.22068459 9.8125 6.125 C10.99779297 7.21167969 10.99779297 7.21167969 12.20703125 8.3203125 C12.79871094 8.87460938 13.39039063 9.42890625 14 10 C13.67 10.66 13.34 11.32 13 12 C10.83035229 10.19096681 8.66421535 8.37801121 6.5 6.5625 C5.87996094 6.04623047 5.25992187 5.52996094 4.62109375 4.99804688 C3.06197284 3.68735732 1.52871719 2.34602708 0 1 C0 0.67 0 0.34 0 0 Z " fill="#E9EBEF" transform="translate(470,242)"/>
<path d="M0 0 C1.1055189 0.93590504 2.20935453 1.87379858 3.3125 2.8125 C3.92738281 3.33457031 4.54226563 3.85664063 5.17578125 4.39453125 C6.85424679 5.87172469 8.43882034 7.40039131 10 9 C9.67 9.99 9.34 10.98 9 12 C7.49405319 10.38050958 5.99539332 8.75424026 4.5 7.125 C3.6646875 6.22007812 2.829375 5.31515625 1.96875 4.3828125 C0 2 0 2 0 0 Z " fill="#E7EAED" transform="translate(488,258)"/>
<path d="M0 0 C4.71403788 0.47939368 8.66579301 0.96834048 13 3 C13 3.33 13 3.66 13 4 C3.40546697 3.40546697 3.40546697 3.40546697 0 0 Z " fill="#E4E8ED" transform="translate(339,466)"/>
<path d="M0 0 C0.97608217 2.92824652 1.08226668 4.95613276 1 8 C-0.65 8.33 -2.3 8.66 -4 9 C-2.25 2.25 -2.25 2.25 0 0 Z " fill="#EEF0F1" transform="translate(521,395)"/>
<path d="M0 0 C1.39195915 4.17587745 -0.17676781 6.13474776 -2 10 C-2.99 10 -3.98 10 -5 10 C-3.66511872 6.40608886 -2.03977277 3.24509304 0 0 Z " fill="#BFC9D8" transform="translate(376,273)"/>
<path d="M0 0 C0.66 0 1.32 0 2 0 C0.44499019 3.81684226 -2.03595495 6.19195732 -5 9 C-3.50079488 5.88626628 -1.91847864 2.87771795 0 0 Z " fill="#E5E9EF" transform="translate(480,424)"/>
<path d="" fill="#FEFEFE" transform="translate(0,0)"/>
<path d="" fill="#FEFDFD" transform="translate(0,0)"/>
<path d="" fill="#FDFFFD" transform="translate(0,0)"/>
<path d="" fill="#FDFFFE" transform="translate(0,0)"/>
<path d="" fill="#FDFDFE" transform="translate(0,0)"/>
<path d="" fill="#FDFDFD" transform="translate(0,0)"/>
<path d="" fill="#FFFFFF" transform="translate(0,0)"/>
<path d="" fill="#FFFFFE" transform="translate(0,0)"/>
<path d="" fill="#FFFFFF" transform="translate(0,0)"/>
<path d="" fill="#FFFFFE" transform="translate(0,0)"/>
</svg>
