<?xml version="1.0" encoding="UTF-8" standalone="no"?><!DOCTYPE svg PUBLIC "-//W3C//DTD SVG 1.1//EN" "http://www.w3.org/Graphics/SVG/1.1/DTD/svg11.dtd"><svg width="100%" height="100%" viewBox="0 0 315 94" version="1.1" xmlns="http://www.w3.org/2000/svg" xmlns:xlink="http://www.w3.org/1999/xlink" xml:space="preserve" xmlns:serif="http://www.serif.com/" style="fill-rule:evenodd;clip-rule:evenodd;stroke-linejoin:round;stroke-miterlimit:2;"><g><g><path d="M23.201,68.829l0,-28.131l-23.201,-39.538l17.304,0l13.63,24.071l13.534,-24.071l17.014,0l-23.104,39.538l0,28.131l-15.177,0Z" style="fill:#0353a4;fill-rule:nonzero;"/><path d="M93.383,69.989c-4.64,0 -9.071,-0.806 -13.292,-2.417c-4.221,-1.611 -7.991,-3.931 -11.31,-6.96c-3.319,-3.029 -5.929,-6.702 -7.83,-11.02c-1.901,-4.318 -2.852,-9.184 -2.852,-14.597c0,-5.413 0.951,-10.279 2.852,-14.597c1.901,-4.318 4.511,-7.991 7.83,-11.02c3.319,-3.029 7.089,-5.349 11.31,-6.96c4.221,-1.611 8.652,-2.417 13.292,-2.417c4.64,0 9.087,0.806 13.34,2.417c4.253,1.611 8.04,3.931 11.359,6.96c3.319,3.029 5.945,6.702 7.879,11.02c1.933,4.318 2.9,9.184 2.9,14.597c0,5.413 -0.967,10.279 -2.9,14.597c-1.933,4.318 -4.56,7.991 -7.879,11.02c-3.319,3.029 -7.105,5.349 -11.359,6.96c-4.253,1.611 -8.7,2.417 -13.34,2.417Zm0,-13.824c3.158,0 6.251,-0.773 9.28,-2.32c3.029,-1.547 5.526,-3.883 7.492,-7.009c1.966,-3.126 2.948,-7.073 2.948,-11.842c0,-4.833 -0.999,-8.813 -2.997,-11.939c-1.998,-3.126 -4.511,-5.446 -7.54,-6.96c-3.029,-1.514 -6.09,-2.272 -9.184,-2.272c-3.093,0 -6.139,0.757 -9.135,2.272c-2.997,1.514 -5.478,3.835 -7.444,6.96c-1.966,3.126 -2.948,7.105 -2.948,11.939c0,4.769 0.967,8.716 2.9,11.842c1.933,3.126 4.398,5.462 7.395,7.009c2.997,1.547 6.074,2.32 9.232,2.32Z" style="fill:#0353a4;fill-rule:nonzero;"/><path d="M149.064,68.829l0,-54.522l-19.431,0l0,-13.147l59.742,0l0,13.147l-25.134,0l0,54.522l-15.177,0Z" style="fill:#0353a4;fill-rule:nonzero;"/><path d="M189.375,68.829l0,-67.669l25.811,0c4.64,0 8.732,0.806 12.277,2.417c3.545,1.611 6.316,3.915 8.314,6.912c1.998,2.997 2.997,6.557 2.997,10.682c0,4.511 -1.224,8.281 -3.673,11.31c-2.449,3.029 -5.832,5.188 -10.15,6.477l18.464,29.871l-17.594,0l-16.144,-27.551l-5.027,0l0,27.551l-15.274,0Zm15.274,-40.504l10.247,0c2.385,0 4.173,-0.371 5.365,-1.112c1.192,-0.741 2.014,-1.659 2.465,-2.755c0.451,-1.096 0.677,-2.191 0.677,-3.287c0,-1.096 -0.226,-2.175 -0.677,-3.238c-0.451,-1.063 -1.273,-1.95 -2.465,-2.658c-1.192,-0.709 -2.981,-1.063 -5.365,-1.063l-10.247,0l0,14.114Z" style="fill:#0353a4;fill-rule:nonzero;"/><path d="M278.795,69.989c-4.64,0 -9.071,-0.806 -13.292,-2.417c-4.221,-1.611 -7.991,-3.931 -11.31,-6.96c-3.319,-3.029 -5.929,-6.702 -7.83,-11.02c-1.901,-4.318 -2.852,-9.184 -2.852,-14.597c0,-5.413 0.951,-10.279 2.852,-14.597c1.901,-4.318 4.511,-7.991 7.83,-11.02c3.319,-3.029 7.089,-5.349 11.31,-6.96c4.221,-1.611 8.652,-2.417 13.292,-2.417c4.64,0 9.087,0.806 13.34,2.417c4.253,1.611 8.04,3.931 11.359,6.96c3.319,3.029 5.945,6.702 7.879,11.02c1.933,4.318 2.9,9.184 2.9,14.597c0,5.413 -0.967,10.279 -2.9,14.597c-1.933,4.318 -4.56,7.991 -7.879,11.02c-3.319,3.029 -7.105,5.349 -11.359,6.96c-4.253,1.611 -8.7,2.417 -13.34,2.417Zm0,-13.824c3.158,0 6.251,-0.773 9.28,-2.32c3.029,-1.547 5.526,-3.883 7.492,-7.009c1.966,-3.126 2.948,-7.073 2.948,-11.842c0,-4.833 -0.999,-8.813 -2.997,-11.939c-1.998,-3.126 -4.511,-5.446 -7.54,-6.96c-3.029,-1.514 -6.09,-2.272 -9.184,-2.272c-3.093,0 -6.139,0.757 -9.135,2.272c-2.997,1.514 -5.478,3.835 -7.444,6.96c-1.966,3.126 -2.948,7.105 -2.948,11.939c0,4.769 0.967,8.716 2.9,11.842c1.933,3.126 4.398,5.462 7.395,7.009c2.997,1.547 6.074,2.32 9.232,2.32Z" style="fill:#0353a4;fill-rule:nonzero;"/></g><g transform="matrix(16,0,0,16,132.64815,92.837145)"></g><g transform="matrix(16,0,0,16,137.97615,92.837145)"></g><g transform="matrix(16,0,0,16,247.54415,92.837145)"></g><text x="67.192px" y="92.837px" style="font-family:'RethinkSans-Regular', 'Rethink Sans';font-size:16px;fill:#0353a4;">T<tspan x="75.24px 81.048px 89.992px " y="92.837px 92.837px 92.837px ">rac</tspan>k. R<tspan x="123.544px " y="92.837px ">e</tspan>ﬂec<tspan x="159.592px " y="92.837px ">t</tspan>. <tspan x="172.584px 180.632px " y="92.837px 92.837px ">Tr</tspan>ansf<tspan x="217.752px " y="92.837px ">o</tspan>rm</text></g></svg>