<?xml version="1.0" encoding="UTF-8"?>
<svg id="Layer_1" data-name="Layer 1" xmlns="http://www.w3.org/2000/svg" viewBox="0 0 166.49 171">
  <defs>
    <style>
      .cls-1 {
        fill: #c0c7d3;
      }

      .cls-1, .cls-2, .cls-3, .cls-4, .cls-5, .cls-6, .cls-7 {
        fill-rule: evenodd;
      }

      .cls-2 {
        fill: #c9cfd7;
      }

      .cls-3 {
        fill: #1f3b70;
      }

      .cls-4 {
        fill: #70819f;
      }

      .cls-8 {
        fill: #fff;
        stroke: #a5a4a4;
        stroke-miterlimit: 10;
        stroke-width: 2px;
      }

      .cls-5 {
        fill: #7386a2;
      }

      .cls-6 {
        fill: #203a70;
      }

      .cls-7 {
        fill: #203a6f;
      }
    </style>
  </defs>
  <rect class="cls-8" x="1" y="1" width="164.49" height="169" rx="29.14" ry="29.14"/>
  <g>
    <path class="cls-3" d="M100.84,74.23c-.36.24-.79.33-1.27.25-2.54-.3-5.09-.56-7.64-.76-1.39,13.1-7.25,23.67-17.58,31.72-10.26,7.73-21.81,12.14-34.65,13.25,9.12-3.6,17.06-8.91,23.83-15.93,6.55-7.32,10.16-15.9,10.83-25.74.25-1.14.34-2.33.25-3.57-.98.11-1.91.28-2.8.51-1.93.1-3.84.35-5.73.76-.21-.08-.42-.17-.64-.25,6.01-8.7,11.95-17.45,17.84-26.25,5.86,8.66,11.72,17.33,17.58,25.99Z"/>
    <path class="cls-6" d="M86.57,38.3c-1.19-.17-2.42-.25-3.69-.25-1.88-.04-3.71.13-5.48.51-12.94,2.11-22.83,8.74-29.69,19.88-7.56,14.37-7.22,28.55,1.02,42.55,1.03,1.32,2,2.68,2.93,4.08-1.73,1.71-3.68,3.03-5.86,3.95-9.52-12.41-12.62-26.3-9.3-41.66,5.54-18.96,17.9-30.81,37.08-35.55,18.79-3.03,34.46,2.54,47.01,16.69,12.74,17.01,14.27,35.01,4.59,54.02-11.64,18.37-28.33,26.31-50.07,23.83-5.62-1-10.89-2.95-15.8-5.86,2.74-1.16,5.46-2.39,8.15-3.69,15.91,5.76,30.35,3.26,43.32-7.52,12.77-12.75,16.38-27.74,10.83-44.97-6.65-15.44-18.33-24.1-35.04-25.99Z"/>
    <path class="cls-1" d="M74.34,77.03v-3.06h-2.55c.89-.23,1.83-.4,2.8-.51.08,1.24,0,2.43-.25,3.57Z"/>
    <path class="cls-5" d="M100.84,74.23c.14.02.22.1.25.25-.54.33-1.05.33-1.53,0,.49.07.91-.01,1.27-.25Z"/>
    <path class="cls-2" d="M86.57,38.3c-3.06-.04-6.12.05-9.17.25,1.77-.38,3.59-.55,5.48-.51,1.28,0,2.51.09,3.69.25Z"/>
    <path class="cls-4" d="M33.32,139.71c-.25-2.33-.34-4.71-.25-7.13h100.4v7.39c-33.42.08-66.8,0-100.14-.25Z"/>
    <path class="cls-7" d="M33.32,139.71v-6.88h99.89v6.88H33.32Z"/>
  </g>
</svg>