<?xml version="1.0" encoding="UTF-8" standalone="no"?><!DOCTYPE svg PUBLIC "-//W3C//DTD SVG 1.1//EN" "http://www.w3.org/Graphics/SVG/1.1/DTD/svg11.dtd"><svg width="100%" height="100%" viewBox="0 0 140 126" version="1.1" xmlns="http://www.w3.org/2000/svg" xmlns:xlink="http://www.w3.org/1999/xlink" xml:space="preserve" xmlns:serif="http://www.serif.com/" style="fill-rule:evenodd;clip-rule:evenodd;stroke-linejoin:round;stroke-miterlimit:2;"><path id="Yothro-icon" serif:id="Yothro icon" d="M139.991,12.533l0,100.262c0,6.917 -5.616,12.533 -12.533,12.533l-114.926,0c-6.917,0 -12.533,-5.616 -12.533,-12.533l0,-100.262c0,-6.917 5.616,-12.533 12.533,-12.533l114.926,0c6.917,0 12.533,5.616 12.533,12.533Z" style="fill:none;"/><clipPath id="_clip1"><path d="M139.991,12.533l0,100.262c0,6.917 -5.616,12.533 -12.533,12.533l-114.926,0c-6.917,0 -12.533,-5.616 -12.533,-12.533l0,-100.262c0,-6.917 5.616,-12.533 12.533,-12.533l114.926,0c6.917,0 12.533,5.616 12.533,12.533Z"/></clipPath><g clip-path="url(#_clip1)"><g><g><path d="M31.666,96.498l0,-54.522l-19.431,0l0,-13.147l59.742,0l0,13.147l-25.134,0l0,54.522l-15.177,0Z" style="fill:#0353a4;fill-rule:nonzero;"/><path d="M71.977,96.498l0,-67.669l25.811,0c4.64,0 8.732,0.806 12.277,2.417c3.545,1.611 6.316,3.915 8.314,6.912c1.998,2.997 2.997,6.557 2.997,10.682c0,4.511 -1.224,8.281 -3.673,11.31c-2.449,3.029 -5.832,5.188 -10.15,6.477l18.464,29.871l-17.594,0l-16.144,-27.551l-5.027,0l0,27.551l-15.274,0Zm15.274,-40.504l10.247,0c2.385,0 4.173,-0.371 5.365,-1.112c1.192,-0.741 2.014,-1.659 2.465,-2.755c0.451,-1.096 0.677,-2.191 0.677,-3.287c0,-1.096 -0.226,-2.175 -0.677,-3.238c-0.451,-1.063 -1.273,-1.95 -2.465,-2.658c-1.192,-0.709 -2.981,-1.063 -5.365,-1.063l-10.247,0l0,14.114Z" style="fill:#0353a4;fill-rule:nonzero;"/></g></g></g></svg>